HIERARCHY
ROOT hip
{
  OFFSET 0 0 0
  CHANNELS 6 Xposition Yposition Zposition Zrotation Yrotation Xrotation
  JOINT abdomen
  {
    OFFSET 0 20.6881 -0.73152
    CHANNELS 3 Zrotation Xrotation Yrotation
    JOINT chest
    {
      OFFSET 0 11.7043 -0.48768
      CHANNELS 3 Zrotation Xrotation Yrotation
      JOINT neck
      {
        OFFSET 0 22.1894 -2.19456
        CHANNELS 3 Zrotation Xrotation Yrotation
        JOINT head
        {
          OFFSET -0.24384 7.07133 1.2192
          CHANNELS 3 Zrotation Xrotation Yrotation
          JOINT leftEye
          {
            OFFSET 4.14528 8.04674 8.04672
            CHANNELS 3 Zrotation Xrotation Yrotation
            End Site
            {
              OFFSET 1 0 0
            }
          }
          JOINT rightEye
          {
            OFFSET -3.6576 8.04674 8.04672
            CHANNELS 3 Zrotation Xrotation Yrotation
            End Site
            {
              OFFSET 1 0 0
            }
          }
        }
      }
      JOINT rCollar
      {
        OFFSET -2.68224 19.2634 -4.8768
        CHANNELS 3 Zrotation Xrotation Yrotation
        JOINT rShldr
        {
          OFFSET -8.77824 -1.95073 1.46304
          CHANNELS 3 Zrotation Xrotation Yrotation
          JOINT rForeArm
          {
            OFFSET -28.1742 -1.7115 0.48768
            CHANNELS 3 Zrotation Xrotation Yrotation
            JOINT rHand
            {
              OFFSET -22.5879 0.773209 7.07136
              CHANNELS 3 Zrotation Xrotation Yrotation
              JOINT rThumb1
              {
                OFFSET -1.2192 -0.487915 3.41376
                CHANNELS 3 Zrotation Xrotation Yrotation
                JOINT rThumb2
                {
                  OFFSET -3.37035 -0.52449 3.41376
                  CHANNELS 3 Zrotation Xrotation Yrotation
                  End Site
                  {
                    OFFSET -1.78271 -1.18214 1.43049
                  }
                }
              }
              JOINT rIndex1
              {
                OFFSET -7.75947 0.938293 5.60832
                CHANNELS 3 Zrotation Xrotation Yrotation
                JOINT rIndex2
                {
                  OFFSET -2.54057 -0.884171 1.56538
                  CHANNELS 3 Zrotation Xrotation Yrotation
                  End Site
                  {
                    OFFSET -1.62519 -0.234802 1.16502
                  }
                }
              }
              JOINT rMid1
              {
                OFFSET -8.24714 1.18213 3.41376
                CHANNELS 3 Zrotation Xrotation Yrotation
                JOINT rMid2
                {
                  OFFSET -3.10165 -0.590103 1.0647
                  CHANNELS 3 Zrotation Xrotation Yrotation
                  End Site
                  {
                    OFFSET -2.48547 -0.328903 0.83742
                  }
                }
              }
              JOINT rRing1
              {
                OFFSET -8.82822 0.546677 1.51678
                CHANNELS 3 Zrotation Xrotation Yrotation
                JOINT rRing2
                {
                  OFFSET -2.60934 -0.819778 -0.0198488
                  CHANNELS 3 Zrotation Xrotation Yrotation
                  End Site
                  {
                    OFFSET -2.33842 -0.294052 0.168128
                  }
                }
              }
              JOINT rPinky1
              {
                OFFSET -8.27202 -0.0477905 -0.4584
                CHANNELS 3 Zrotation Xrotation Yrotation
                JOINT rPinky2
                {
                  OFFSET -1.82734 -0.647385 -0.700984
                  CHANNELS 3 Zrotation Xrotation Yrotation
                  End Site
                  {
                    OFFSET -1.69225 -0.51767 -0.607171
                  }
                }
              }
            }
          }
        }
      }
      JOINT lCollar
      {
        OFFSET 2.68224 19.2634 -4.8768
        CHANNELS 3 Zrotation Xrotation Yrotation
        JOINT lShldr
        {
          OFFSET 8.77824 -1.95073 1.46304
          CHANNELS 3 Zrotation Xrotation Yrotation
          JOINT lForeArm
          {
            OFFSET 28.1742 -1.7115 0.48768
            CHANNELS 3 Zrotation Xrotation Yrotation
            JOINT lHand
            {
              OFFSET 22.5879 0.773209 7.07136
              CHANNELS 3 Zrotation Xrotation Yrotation
              JOINT lThumb1
              {
                OFFSET 1.2192 -0.487915 3.41376
                CHANNELS 3 Zrotation Xrotation Yrotation
                JOINT lThumb2
                {
                  OFFSET 3.37035 -0.52449 3.41376
                  CHANNELS 3 Zrotation Xrotation Yrotation
                  End Site
                  {
                    OFFSET 1.78271 -1.18214 1.43049
                  }
                }
              }
              JOINT lIndex1
              {
                OFFSET 7.75947 0.938293 5.60832
                CHANNELS 3 Zrotation Xrotation Yrotation
                JOINT lIndex2
                {
                  OFFSET 2.54057 -0.884171 1.56538
                  CHANNELS 3 Zrotation Xrotation Yrotation
                  End Site
                  {
                    OFFSET 1.62519 -0.234802 1.16502
                  }
                }
              }
              JOINT lMid1
              {
                OFFSET 8.24714 1.18213 3.41376
                CHANNELS 3 Zrotation Xrotation Yrotation
                JOINT lMid2
                {
                  OFFSET 3.10165 -0.590103 1.0647
                  CHANNELS 3 Zrotation Xrotation Yrotation
                  End Site
                  {
                    OFFSET 2.48547 -0.328903 0.83742
                  }
                }
              }
              JOINT lRing1
              {
                OFFSET 8.82822 0.546677 1.51678
                CHANNELS 3 Zrotation Xrotation Yrotation
                JOINT lRing2
                {
                  OFFSET 2.60934 -0.819778 -0.0198488
                  CHANNELS 3 Zrotation Xrotation Yrotation
                  End Site
                  {
                    OFFSET 2.33842 -0.294052 0.168128
                  }
                }
              }
              JOINT lPinky1
              {
                OFFSET 8.27202 -0.0477905 -0.4584
                CHANNELS 3 Zrotation Xrotation Yrotation
                JOINT lPinky2
                {
                  OFFSET 1.82734 -0.647385 -0.700984
                  CHANNELS 3 Zrotation Xrotation Yrotation
                  End Site
                  {
                    OFFSET 1.69225 -0.51767 -0.607171
                  }
                }
              }
            }
          }
        }
      }
    }
  }
  JOINT rButtock
  {
    OFFSET -8.77824 4.35084 1.2192
    CHANNELS 3 Zrotation Xrotation Yrotation
    JOINT rThigh
    {
      OFFSET 0 -1.70687 -2.19456
      CHANNELS 3 Zrotation Xrotation Yrotation
      JOINT rShin
      {
        OFFSET 0 -36.8199 0.73152
        CHANNELS 3 Zrotation Xrotation Yrotation
        JOINT rFoot
        {
          OFFSET 0.73152 -45.1104 -5.12064
          CHANNELS 3 Zrotation Xrotation Yrotation
          End Site
          {
            OFFSET -1.1221 -3.69964 12.103
          }
        }
      }
    }
  }
  JOINT lButtock
  {
    OFFSET 8.77824 4.35084 1.2192
    CHANNELS 3 Zrotation Xrotation Yrotation
    JOINT lThigh
    {
      OFFSET 0 -1.70687 -2.19456
      CHANNELS 3 Zrotation Xrotation Yrotation
      JOINT lShin
      {
        OFFSET 0 -36.8199 0.73152
        CHANNELS 3 Zrotation Xrotation Yrotation
        JOINT lFoot
        {
          OFFSET -0.73152 -45.1104 -5.12064
          CHANNELS 3 Zrotation Xrotation Yrotation
          End Site
          {
            OFFSET 1.1221 -3.69964 12.103
          }
        }
      }
    }
  }
}
MOTION
Frames:	5
Frame Time:	0.00833333
-3.45914 79.68 108.665 182.845 -9.8849 -163.554 -7.94856 -22.0324 -6.73937 5.41014 15.4833 -2.18815 -1.19879 20.3299 -1.31294 10.9775 -17.2947 -3.01395 -0.0 0.0 0.0 -0.0 0.0 0.0 1.94764e-13 -7.20632e-14 -2.65212e-13 82.6462 7.36729 -9.2645 -15.0413 -7.82601 27.6743 -0.002265 -1.34317 -0.188806 -1.32154e-09 -2.31371e-09 -1.50262e-09 -2.28109e-09 -4.00711e-09 -2.60128e-09 -1.32153e-09 -2.31371e-09 -1.50262e-09 7.73091 5.47488 0.417314 -1.32154e-09 -2.31371e-09 -1.50261e-09 2.90554 0.965183 0.102902 -1.32153e-09 -2.31371e-09 -1.50261e-09 10.2786 0.731801 0.0259123 -1.32155e-09 -2.3137e-09 -1.50261e-09 2.22167 -0.733487 -0.20892 1.94689e-13 -7.20809e-14 -2.65433e-13 -72.1893 21.6053 1.88792 11.8653 -5.35419 -21.35 0.00514738 2.01596 -0.283447 -1.21713e-10 1.01216e-09 -1.28733e-09 -2.0919e-10 1.75335e-09 -2.22526e-09 -1.21716e-10 1.01216e-09 -1.28732e-09 -7.73091 5.47488 -0.417314 -1.2171e-10 1.01216e-09 -1.28733e-09 -2.90554 0.965183 -0.102902 -1.21717e-10 1.01216e-09 -1.28733e-09 -10.2786 0.731801 -0.0259123 -1.21709e-10 1.01216e-09 -1.28734e-09 -2.22167 -0.733487 0.20892 -2.03217e-16 0.0 -3.88251e-19 -18.6907 -56.1151 -4.82007 -0.121551 24.9279 0.351325 -1.13498 -4.24952 -13.0712 2.03217e-16 0.0 3.88251e-19 -1.57476 -15.5288 -17.4055 0.0941132 23.644 -0.580081 -1.43036 -17.8516 -5.256
-3.28954 79.5993 108.189 182.961 -10.0828 -163.765 -7.85392 -21.9915 -6.82055 5.48967 15.5306 -2.22366 -1.13272 20.3544 -1.37252 10.9986 -17.1537 -3.16836 -0.0 0.0 0.0 -0.0 0.0 0.0 2.38282e-13 1.4323e-14 -2.12948e-13 82.7274 6.97946 -9.53088 -14.9568 -7.75303 27.4999 -0.00159609 -1.14069 -0.160335 -1.97202e-09 -1.47852e-09 -2.2407e-09 -3.40611e-09 -2.5638e-09 -3.87771e-09 -1.97201e-09 -1.47852e-09 -2.2407e-09 7.73091 5.47488 0.417314 -1.97202e-09 -1.47852e-09 -2.24069e-09 2.90554 0.965183 0.102902 -1.97201e-09 -1.47852e-09 -2.24069e-09 10.2786 0.731801 0.0259123 -1.97202e-09 -1.47852e-09 -2.24069e-09 2.22167 -0.733487 -0.20892 2.3822e-13 1.43018e-14 -2.13197e-13 -72.0783 21.6426 1.93873 11.9134 -5.38802 -21.4423 0.00431441 1.87516 -0.263632 -6.3452e-10 1.28508e-09 -3.91288e-10 -1.09134e-09 2.22607e-09 -6.74421e-10 -6.34523e-10 1.28508e-09 -3.91281e-10 -7.73091 5.47488 -0.417314 -6.34517e-10 1.28508e-09 -3.91285e-10 -2.90554 0.965183 -0.102902 -6.34524e-10 1.28508e-09 -3.9129e-10 -10.2786 0.731801 -0.0259123 -6.34517e-10 1.28508e-09 -3.91297e-10 -2.22167 -0.733487 0.20892 -2.03217e-16 0.0 -3.88251e-19 -19.1833 -55.7594 -4.50123 -0.114482 23.6737 0.29038 -0.915685 -3.44791 -13.4095 2.03217e-16 0.0 3.88251e-19 -1.12495 -15.0034 -17.4755 0.0969211 23.6185 -0.575131 -1.53515 -17.9995 -5.4406
-3.13769 79.5291 107.684 182.969 -10.3769 -164.032 -7.74002 -21.9453 -6.91645 5.52054 15.575 -2.25795 -1.06962 20.5503 -1.36434 10.9592 -17.3708 -3.12973 -0.0 0.0 0.0 -0.0 0.0 0.0 2.12191e-13 7.0976e-14 -5.40671e-14 82.8247 6.57605 -9.78123 -14.8506 -7.66214 27.2809 -0.000862038 -0.891344 -0.125279 -2.13255e-09 2.74662e-10 -2.03084e-09 -3.68524e-09 4.70787e-10 -3.51297e-09 -2.13255e-09 2.74659e-10 -2.03084e-09 7.73091 5.47488 0.417314 -2.13255e-09 2.7466e-10 -2.03083e-09 2.90554 0.965183 0.102902 -2.13254e-09 2.74662e-10 -2.03083e-09 10.2786 0.731801 0.0259123 -2.13256e-09 2.74666e-10 -2.03083e-09 2.22167 -0.733487 -0.20892 2.12161e-13 7.09562e-14 -5.4307e-14 -71.933 21.7934 2.03806 12.004 -5.45183 -21.6169 0.00294586 1.61071 -0.226425 -1.04676e-09 8.53756e-10 6.31648e-10 -1.80233e-09 1.47927e-09 1.09553e-09 -1.04677e-09 8.53756e-10 6.31655e-10 -7.73091 5.47488 -0.417314 -1.04676e-09 8.53756e-10 6.31648e-10 -2.90554 0.965183 -0.102902 -1.04677e-09 8.53757e-10 6.31646e-10 -10.2786 0.731801 -0.0259123 -1.04676e-09 8.53757e-10 6.31639e-10 -2.22167 -0.733487 0.20892 -2.03217e-16 0.0 -3.88251e-19 -19.611 -55.3621 -4.09654 -0.107679 22.4785 0.231596 -0.664992 -2.52481 -13.8203 2.03217e-16 0.0 3.88251e-19 -0.665124 -14.505 -17.5308 0.0996994 23.6167 -0.571187 -1.59791 -18.1969 -5.46855
-2.96272 79.4618 107.2 183.105 -10.7133 -164.276 -7.61093 -21.9004 -7.01863 5.51668 15.6188 -2.29025 -1.00406 20.8586 -1.31456 10.8813 -17.8241 -2.96963 -0.0 0.0 0.0 -0.0 0.0 0.0 1.41026e-13 1.16496e-13 1.83211e-13 82.933 6.15841 -10.0225 -14.7285 -7.5583 27.0303 -0.000271702 -0.608526 -0.0855245 -2.01955e-09 2.7533e-09 -1.25192e-09 -3.49237e-09 4.76244e-09 -2.16288e-09 -2.01955e-09 2.7533e-09 -1.25192e-09 7.73091 5.47488 0.417314 -2.01956e-09 2.7533e-09 -1.25192e-09 2.90554 0.965183 0.102902 -2.01955e-09 2.7533e-09 -1.25192e-09 10.2786 0.731801 0.0259123 -2.01956e-09 2.75331e-09 -1.25192e-09 2.22167 -0.733487 -0.20892 1.4104e-13 1.1648e-13 1.83e-13 -71.7677 22.0102 2.17291 12.1219 -5.53495 -21.8451 0.00161482 1.26905 -0.178375 -1.43077e-09 -1.6937e-11 1.85244e-09 -2.4658e-09 -2.83633e-11 3.20749e-09 -1.43078e-09 -1.69351e-11 1.85244e-09 -7.73091 5.47488 -0.417314 -1.43077e-09 -1.69363e-11 1.85243e-09 -2.90554 0.965183 -0.102902 -1.43078e-09 -1.69347e-11 1.85243e-09 -10.2786 0.731801 -0.0259123 -1.43077e-09 -1.69342e-11 1.85243e-09 -2.22167 -0.733487 0.20892 -2.03217e-16 0.0 -3.88251e-19 -19.9916 -54.9222 -3.63836 -0.101309 21.3178 0.173286 -0.38201 -1.51116 -14.2785 2.03217e-16 0.0 3.88251e-19 -0.195752 -14.0201 -17.5761 0.102368 23.6212 -0.567619 -1.6301 -18.4243 -5.38904
-2.77253 79.3947 106.73 183.341 -10.9671 -164.518 -7.48026 -21.8671 -7.1262 5.50807 15.6607 -2.32336 -0.955346 21.1554 -1.25304 10.8135 -18.2688 -2.78651 -0.0 0.0 0.0 -0.0 0.0 0.0 7.25506e-14 1.49094e-13 4.02086e-13 83.0373 5.76276 -10.26 -14.6114 -7.45899 26.7914 -6.36699e-06 -0.336524 -0.0472947 -1.82187e-09 4.99188e-09 -3.91728e-10 -3.15284e-09 8.63891e-09 -6.72249e-10 -1.82187e-09 4.99188e-09 -3.91724e-10 7.73091 5.47488 0.417314 -1.82187e-09 4.99188e-09 -3.91724e-10 2.90554 0.965183 0.102902 -1.82186e-09 4.99188e-09 -3.91725e-10 10.2786 0.731801 0.0259123 -1.82187e-09 4.99189e-09 -3.91722e-10 2.22167 -0.733487 -0.20892 7.26059e-14 1.49084e-13 4.0191e-13 -71.6051 22.2352 2.31916 12.2488 -5.62485 -22.0919 0.00082319 0.931269 -0.130888 -1.74522e-09 -9.1952e-10 2.88306e-09 -3.00962e-09 -1.59121e-09 4.99046e-09 -1.74522e-09 -9.19516e-10 2.88307e-09 -7.73091 5.47488 -0.417314 -1.74522e-09 -9.19519e-10 2.88305e-09 -2.90554 0.965183 -0.102902 -1.74522e-09 -9.19517e-10 2.88306e-09 -10.2786 0.731801 -0.0259123 -1.74521e-09 -9.19516e-10 2.88306e-09 -2.22167 -0.733487 0.20892 -2.03217e-16 0.0 -3.88251e-19 -20.3377 -54.5013 -3.14525 -0.0960327 20.2117 0.116482 -0.0959369 -0.519785 -14.8155 2.03217e-16 0.0 3.88251e-19 0.284571 -13.5566 -17.6056 0.104898 23.6293 -0.564586 -1.66525 -18.6352 -5.32868
